<svg version="1.0" xmlns="http://www.w3.org/2000/svg"
 width="160.000000pt" height="137.000000pt" viewBox="0 0 160.000000 137.000000"
 preserveAspectRatio="xMidYMid meet">

<g transform="translate(0.000000,137.000000) scale(0.100000,-0.100000)"
fill="#6563FF" stroke="none">
<path d="M505 1099 c-231 -126 -429 -236 -441 -244 -16 -10 -19 -20 -15 -51 4
-34 5 -36 11 -14 5 21 36 -12 285 -304 l280 -328 3 -51 3 -52 -30 30 c-90 92
-530 631 -534 654 l-4 26 -2 -27 c-1 -21 53 -91 270 -350 149 -178 279 -331
289 -341 17 -18 32 -10 466 262 l449 282 11 70 11 69 -308 300 c-169 165 -311
300 -315 300 -5 0 -198 -104 -429 -231z m740 -77 c164 -161 296 -294 294 -296
-20 -18 -902 -557 -908 -554 -9 4 -571 661 -571 668 1 9 865 480 876 477 7 -1
145 -134 309 -295z m287 -387 c-8 -40 -8 -40 -442 -312 -239 -150 -438 -273
-442 -273 -5 0 -8 24 -8 54 l0 54 448 276 c477 295 463 289 444 201z"/>
<path d="M810 1208 c-58 -32 -109 -63 -114 -68 -5 -5 97 -119 250 -277 142
-147 262 -270 267 -271 6 -3 228 127 245 143 4 4 -527 529 -537 532 -3 0 -53
-26 -111 -59z m110 14 c0 -16 -9 -38 -20 -50 -12 -13 -16 -22 -9 -22 7 0 22
-8 33 -17 21 -18 21 -18 4 3 -23 27 -23 41 2 54 61 32 128 -67 85 -124 -8 -11
-12 -29 -9 -42 7 -26 -24 -48 -51 -38 -14 6 -14 9 0 30 23 36 18 43 -8 10
l-23 -28 33 -33 c23 -23 33 -42 33 -63 0 -50 -19 -48 -76 9 l-55 54 28 23 c15
12 21 20 12 17 -21 -8 -48 23 -30 34 19 12 -5 55 -25 47 -9 -3 -12 -1 -9 4 3
6 1 10 -4 10 -6 0 -11 -7 -11 -15 0 -8 -11 -17 -25 -21 -21 -5 -32 0 -59 32
-30 34 -32 40 -17 48 94 55 187 106 194 106 4 0 7 -13 7 -28z m35 8 c18 -19
17 -20 -3 -20 -15 0 -22 6 -22 20 0 11 2 20 3 20 2 0 12 -9 22 -20z m110 -110
c29 -30 29 -31 5 -27 -16 3 -26 13 -31 30 -4 15 -6 27 -5 27 1 0 15 -14 31
-30z m55 -68 c30 -37 34 -66 15 -96 -18 -28 -53 -34 -73 -14 -8 8 -9 15 -1 25
9 9 7 19 -5 38 -9 14 -21 25 -26 25 -18 0 -11 28 11 43 26 19 54 11 79 -21z
m-263 2 c5 -14 -42 -38 -56 -30 -17 11 -13 22 12 34 25 12 39 11 44 -4z m328
-72 c-20 -4 -20 -4 -30 28 l-7 25 27 -25 c22 -21 24 -26 10 -28z m-319 27 c3
-6 1 -16 -4 -21 -13 -13 -45 8 -36 23 7 12 31 11 40 -2z m181 -25 c1 -5 -11
-17 -27 -26 -38 -21 -53 -3 -20 24 23 19 41 20 47 2z m176 -34 c14 -11 29 -30
33 -42 4 -13 9 -17 13 -9 5 7 15 3 31 -14 l23 -25 -21 0 c-12 0 -22 6 -22 12
0 7 -8 -3 -19 -22 -21 -40 -59 -51 -81 -25 -12 14 -12 18 0 25 11 7 10 13 -4
34 -9 14 -23 26 -31 26 -20 0 -19 19 2 42 21 23 44 23 76 -2z m-163 -15 c7 -8
23 -15 36 -15 28 0 33 -30 9 -50 -12 -10 -22 -9 -49 4 -19 9 -39 16 -45 16
-15 0 -14 47 2 53 22 9 34 7 47 -8z m-16 -65 c48 -18 82 -100 54 -128 -10 -10
-24 -1 -65 40 -57 56 -63 71 -35 87 21 13 16 13 46 1z m121 0 c9 -14 -42 -43
-62 -35 -16 6 -15 8 7 25 28 22 46 25 55 10z m174 -36 c13 -9 32 -35 43 -58
16 -34 18 -36 13 -11 l-6 30 28 -27 c27 -27 27 -28 8 -43 -11 -8 -24 -13 -30
-11 -5 1 -16 -3 -23 -11 -18 -18 -57 -16 -73 3 -10 13 -10 17 1 24 11 7 10 13
-4 34 -9 14 -23 26 -31 26 -20 0 -19 19 2 42 20 22 42 23 72 2z m-165 -19 c11
-8 30 -15 43 -15 18 0 23 -6 23 -24 0 -28 -35 -45 -53 -27 -6 6 -23 11 -38 11
-21 0 -28 6 -31 25 -4 17 0 29 11 35 21 12 22 12 45 -5z m113 -71 c2 -5 -10
-17 -26 -27 -35 -21 -37 -21 -45 -2 -3 9 5 20 22 29 29 16 44 16 49 0z m-105
-6 c42 -34 64 -107 37 -124 -17 -10 -123 100 -116 120 8 19 57 21 79 4z m121
-47 l36 -18 -50 -32 c-28 -17 -51 -31 -52 -31 -1 0 -1 18 -1 41 1 33 10 51 29
59 1 0 17 -8 38 -19z"/>
<path d="M830 1145 c-20 -25 -6 -31 17 -7 14 14 18 22 9 22 -8 0 -19 -7 -26
-15z"/>
<path d="M947 1089 c4 -13 8 -18 11 -10 2 7 -1 18 -6 23 -8 8 -9 4 -5 -13z"/>
<path d="M385 974 c-132 -74 -241 -137 -242 -141 -2 -6 445 -533 497 -587 5
-5 93 43 202 109 188 115 232 145 196 132 -10 -4 -18 -2 -18 4 0 7 9 9 21 6
20 -5 119 46 119 62 0 9 -520 551 -528 550 -4 -1 -115 -61 -247 -135z m245 87
c0 -17 -4 -33 -10 -36 -5 -3 -10 -14 -9 -23 0 -13 2 -12 9 5 20 50 82 34 113
-29 11 -21 17 -26 17 -15 0 22 15 14 31 -15 10 -19 9 -20 -10 -15 -16 4 -25
-2 -38 -24 -19 -32 -40 -37 -69 -13 -13 10 -15 17 -7 20 18 8 -6 56 -24 50 -8
-3 -11 -1 -8 4 3 6 1 10 -4 10 -6 0 -11 -6 -11 -13 0 -8 -11 -19 -25 -25 -21
-10 -32 -9 -56 4 -28 14 -33 14 -55 -1 -13 -8 -24 -20 -24 -25 0 -6 -11 -10
-25 -10 -15 0 -36 -11 -49 -25 -14 -15 -34 -25 -50 -25 -18 0 -30 -7 -38 -25
-6 -14 -15 -25 -19 -25 -4 0 5 -13 21 -29 44 -44 51 -106 14 -118 -6 -2 -32
22 -59 53 l-49 57 30 25 c16 13 22 21 14 17 -8 -5 -22 -14 -31 -22 -13 -11
-19 -10 -38 11 -18 19 -20 26 -9 32 38 24 454 253 461 254 4 0 7 -13 7 -29z
m35 9 c18 -19 17 -20 -3 -20 -15 0 -22 6 -22 20 0 11 2 20 3 20 2 0 12 -9 22
-20z m-119 -154 c38 -38 44 -78 17 -108 -21 -23 -50 -23 -56 0 -4 14 -5 14 -6
-3 -3 -43 -61 -84 -74 -52 -3 6 -6 3 -6 -9 -1 -29 -35 -57 -59 -50 -11 4 -22
19 -25 36 -4 16 -16 39 -27 50 -23 23 -25 41 -8 58 28 28 74 5 106 -53 9 -16
11 -17 12 -3 0 9 -11 30 -25 46 -29 35 -25 59 13 69 21 5 32 -1 59 -30 39 -43
45 -33 8 12 l-26 30 21 21 c27 27 36 26 76 -14z m101 18 c4 -12 -56 -46 -68
-38 -16 10 -10 23 19 38 28 16 44 16 49 0z m177 -45 c35 -42 41 -72 21 -103
-25 -38 -50 -33 -63 12 -7 21 -21 47 -32 57 -23 21 -25 36 -8 53 21 21 55 13
82 -19z m-169 1 c3 -6 -3 -22 -13 -38 l-20 -27 25 -19 c14 -10 31 -34 39 -53
13 -30 13 -36 -3 -58 -25 -35 -59 -33 -66 4 -3 15 -18 42 -32 59 -26 31 -26
31 -6 51 13 13 18 27 14 42 -9 33 45 67 62 39z m82 -42 c46 -51 54 -87 23
-118 -30 -30 -48 -25 -60 18 -5 22 -19 47 -30 57 -23 21 -25 36 -8 53 19 19
53 14 75 -10z m158 -36 c-20 -4 -20 -4 -30 28 l-7 25 27 -25 c22 -21 24 -26
10 -28z m27 -23 c11 -6 29 -30 39 -55 19 -41 19 -45 3 -69 -28 -42 -90 -29
-79 17 5 20 1 30 -19 46 -31 23 -32 29 -9 54 18 21 36 23 65 7z m-346 -43 c22
-22 34 -44 34 -62 0 -31 -25 -64 -50 -64 -19 0 -61 29 -42 30 19 0 15 15 -13
48 -29 35 -31 45 -9 66 23 24 42 20 80 -18z m254 -19 c0 -30 -43 -53 -60 -32
-16 19 8 55 37 55 17 0 23 -6 23 -23z m183 -45 c-18 -4 -33 14 -33 41 0 15 5
13 24 -10 20 -23 22 -29 9 -31z m-543 28 c0 -27 -45 -56 -64 -41 -12 10 -10
16 8 36 26 30 56 33 56 5z m398 -16 c-5 -24 -55 -51 -69 -37 -9 9 -3 17 22 32
41 25 52 26 47 5z m-95 -22 c36 -37 45 -86 22 -112 -20 -22 -55 -27 -55 -8 0
7 -8 -3 -19 -22 -24 -46 -60 -48 -74 -5 -5 17 -21 42 -34 56 -21 23 -23 30
-14 48 18 32 64 28 95 -10 14 -17 26 -35 26 -41 0 -6 3 -9 6 -6 7 8 -15 51
-32 61 -17 10 -18 39 -2 55 20 20 53 14 81 -16z m-265 0 c3 -11 -46 -42 -68
-42 -20 0 -10 25 18 42 30 18 44 18 50 0z m-116 -4 c45 -37 62 -104 33 -128
-13 -11 -22 -5 -58 35 -56 64 -61 73 -47 91 15 17 51 18 72 2z m666 -21 c11
-12 25 -33 31 -47 8 -20 10 -21 10 -6 1 18 3 18 26 -4 14 -13 25 -26 25 -30 0
-4 -11 -12 -25 -18 -19 -9 -25 -9 -25 0 0 7 -7 2 -16 -10 -22 -32 -55 -25 -67
13 -5 17 -20 41 -33 56 -27 28 -29 40 -12 57 19 19 63 14 86 -11z m-179 1 c18
-11 18 -12 -2 -40 -28 -38 -57 -37 -57 2 0 17 7 33 18 39 22 13 19 13 41 -1z
m-358 -24 c11 -13 10 -17 -4 -25 -9 -6 -17 -17 -17 -25 0 -10 -8 -14 -22 -12
-33 4 -37 51 -6 66 31 15 34 14 49 -4z m466 -43 c39 -58 27 -121 -22 -121 -17
0 -25 9 -33 38 -7 21 -21 47 -32 57 -23 21 -25 36 -8 53 23 23 70 10 95 -27z
m-395 7 c43 -36 63 -109 36 -136 -24 -24 -56 -14 -68 22 -6 18 -20 42 -30 51
-49 44 11 104 62 63z m299 -40 c24 -26 39 -60 39 -88 0 -26 -29 -52 -54 -48
-14 2 -27 -6 -38 -24 -27 -42 -98 -34 -84 9 4 13 -2 29 -19 47 -14 15 -25 33
-25 40 0 36 65 49 93 18 8 -9 23 -31 31 -47 10 -19 16 -24 16 -13 0 10 -13 33
-30 51 -33 38 -36 47 -18 65 19 19 65 14 89 -10z m-373 -20 c33 -36 45 -78 31
-105 -17 -31 -24 -29 -61 12 -65 75 -71 85 -58 100 18 22 64 18 88 -7z m182
-72 c0 -33 -43 -61 -69 -44 -19 12 -19 12 2 39 28 36 67 39 67 5z m260 -16
c-20 -13 -33 -13 -25 0 3 6 14 10 23 10 15 0 15 -2 2 -10z m-222 -28 c3 -11
-46 -42 -68 -42 -20 0 -10 26 18 42 29 19 43 19 50 0z m-104 -21 c15 -15 31
-41 36 -57 8 -29 8 -29 9 -3 2 41 37 54 84 30 l37 -19 -57 -35 c-50 -31 -59
-33 -64 -19 -5 13 -7 12 -11 -6 -4 -12 -11 -22 -16 -22 -13 0 -112 110 -112
125 0 18 22 35 45 35 12 0 34 -13 49 -29z m241 -1 c-3 -5 -10 -10 -16 -10 -5
0 -9 5 -9 10 0 6 7 10 16 10 8 0 12 -4 9 -10z"/>
</g>
</svg>
