<?xml version="1.0" standalone="no"?>
<!DOCTYPE svg PUBLIC "-//W3C//DTD SVG 20010904//EN"
 "http://www.w3.org/TR/2001/REC-SVG-20010904/DTD/svg10.dtd">
<svg version="1.0" xmlns="http://www.w3.org/2000/svg"
 width="160.000000pt" height="140.000000pt" viewBox="0 0 160.000000 140.000000"
 preserveAspectRatio="xMidYMid meet">

<g transform="translate(0.000000,140.000000) scale(0.100000,-0.100000)"
fill="#000000" stroke="none">
<path d="M565 1323 c-38 -8 -84 -21 -102 -28 -33 -14 -33 -15 -20 -47 7 -18
53 -130 102 -248 48 -118 92 -219 96 -224 4 -5 19 -6 33 -2 l26 6 0 280 0 280
-32 -1 c-18 0 -64 -7 -103 -16z"/>
<path d="M730 1062 l0 -280 31 -7 c17 -4 32 -5 34 -3 2 1 41 95 88 208 l85
205 -21 23 c-14 15 -21 36 -22 62 0 37 -3 41 -35 50 -19 5 -63 13 -97 16 l-63
7 0 -281z"/>
<path d="M984 1332 c-15 -10 -34 -47 -34 -66 0 -28 38 -56 74 -56 59 0 88 68
46 110 -20 20 -65 26 -86 12z"/>
<path d="M345 1238 c-64 -40 -155 -117 -155 -132 0 -6 84 -95 188 -198 l187
-187 24 18 25 19 -104 251 c-57 139 -106 254 -110 256 -3 2 -28 -10 -55 -27z"/>
<path d="M1088 1204 c-9 -10 -34 -20 -55 -23 l-37 -6 -88 -210 c-65 -155 -84
-211 -75 -217 42 -29 39 -31 233 163 l189 190 -64 60 c-35 32 -69 59 -75 59
-7 0 -19 -7 -28 -16z"/>
<path d="M123 1018 c-36 -61 -75 -170 -65 -180 6 -6 438 -188 447 -188 1 0 10
12 20 26 l17 27 -183 183 c-101 101 -188 184 -194 184 -6 0 -24 -24 -42 -52z"/>
<path d="M1080 885 c-180 -181 -184 -185 -170 -210 7 -14 16 -25 20 -25 10 0
444 181 452 189 16 14 -87 231 -110 231 -4 0 -90 -83 -192 -185z"/>
<path d="M1165 716 c-121 -51 -220 -98 -219 -104 1 -7 2 -21 3 -32 1 -19 8
-20 221 -20 l220 0 9 24 c5 13 21 32 34 42 l25 19 -30 83 c-17 45 -33 82 -37
81 -3 -1 -105 -43 -226 -93z"/>
<path d="M40 730 c0 -38 5 -92 11 -120 l11 -50 214 0 214 0 0 25 c0 14 0 28 1
32 1 7 -419 183 -438 183 -9 0 -13 -19 -13 -70z"/>
<path d="M1440 590 c-56 -56 18 -139 90 -100 35 19 33 88 -4 112 -21 14 -66 8
-86 -12z"/>
<path d="M86 493 c18 -42 78 -138 92 -147 11 -6 314 117 313 127 -1 4 -1 18
-1 32 l0 25 -209 0 -210 0 15 -37z"/>
<path d="M950 512 c0 -10 -12 -42 -26 -71 l-27 -53 96 -96 95 -95 42 31 c43
32 280 241 280 247 0 2 -4 15 -10 29 l-10 26 -220 0 c-205 0 -220 -1 -220 -18z"/>
<path d="M355 380 c-77 -32 -141 -62 -142 -67 -3 -9 61 -66 110 -98 l29 -18
95 96 96 95 -17 26 c-9 14 -20 26 -24 25 -4 0 -70 -27 -147 -59z"/>
<path d="M469 274 l-93 -93 47 -20 c81 -35 158 -52 263 -58 l102 -6 7 34 c4
19 16 44 27 56 l20 22 -22 53 -22 54 -71 -1 c-60 0 -80 5 -118 26 l-47 26 -93
-93z"/>
<path d="M850 353 c-14 -9 -26 -17 -28 -18 -1 -1 9 -27 23 -58 22 -52 28 -57
56 -57 23 0 40 -9 63 -34 31 -32 34 -33 59 -19 15 7 27 17 27 21 0 4 -39 47
-88 95 -87 87 -88 87 -112 70z"/>
<path d="M857 179 c-45 -26 -37 -98 14 -120 26 -10 34 -9 57 8 71 53 5 156
-71 112z"/>
</g>
</svg>
