<?xml version="1.0" standalone="no"?>
<!DOCTYPE svg PUBLIC "-//W3C//DTD SVG 20010904//EN"
 "http://www.w3.org/TR/2001/REC-SVG-20010904/DTD/svg10.dtd">
<svg version="1.0" xmlns="http://www.w3.org/2000/svg"
 width="160.000000pt" height="137.000000pt" viewBox="0 0 160.000000 137.000000"
 preserveAspectRatio="xMidYMid meet">

<g transform="translate(0.000000,137.000000) scale(0.100000,-0.100000)"
fill="#6563FF" stroke="none">
<path d="M505 1099 c-231 -126 -429 -236 -441 -244 -16 -10 -19 -20 -15 -51 4
-34 5 -36 11 -14 5 21 36 -12 285 -304 l280 -328 3 -51 3 -52 -30 30 c-90 92
-530 631 -534 654 l-4 26 -2 -27 c-1 -21 53 -91 270 -350 149 -178 279 -331
289 -341 17 -18 32 -10 466 262 l449 282 11 70 11 69 -308 300 c-169 165 -311
300 -315 300 -5 0 -198 -104 -429 -231z m740 -77 c164 -161 296 -294 294 -296
-20 -18 -902 -557 -908 -554 -9 4 -571 661 -571 668 1 9 865 480 876 477 7 -1
145 -134 309 -295z m287 -387 c-8 -40 -8 -40 -442 -312 -239 -150 -438 -273
-442 -273 -5 0 -8 24 -8 54 l0 54 448 276 c477 295 463 289 444 201z"/>
<path d="M810 1208 c-58 -32 -109 -63 -114 -68 -5 -5 97 -119 250 -277 142
-147 262 -270 267 -271 6 -3 228 127 245 143 4 4 -527 529 -537 532 -3 0 -53
-26 -111 -59z m110 15 c-1 -37 -22 -63 -52 -63 -33 0 -48 -18 -48 -57 0 -27
-5 -34 -25 -39 -21 -5 -32 0 -59 32 -30 34 -32 40 -17 48 94 55 187 106 194
106 4 0 7 -12 7 -27z m35 7 c18 -19 17 -20 -3 -20 -15 0 -22 6 -22 20 0 11 2
20 3 20 2 0 12 -9 22 -20z m42 -62 c31 -34 37 -65 19 -93 -19 -29 -46 -33 -46
-7 0 11 -13 37 -29 59 -22 30 -26 44 -18 52 18 18 52 13 74 -11z m-73 -49 c43
-51 32 -113 -20 -107 -25 3 -29 7 -26 29 2 19 -4 33 -23 47 -22 18 -25 24 -15
41 16 31 54 26 84 -10z m156 -27 c-20 -7 -37 6 -42 33 l-5 26 29 -28 c16 -15
24 -29 18 -31z m34 -43 c31 -36 34 -79 7 -103 -16 -15 -23 -15 -42 -6 -15 9
-18 14 -9 20 16 10 -14 70 -35 70 -18 0 -18 5 -5 31 16 29 54 24 84 -12z
m-257 5 c5 -14 -42 -38 -56 -30 -17 11 -13 22 12 34 25 12 39 11 44 -4z m151
-37 c4 -20 -33 -41 -53 -30 -13 8 -13 11 0 30 17 24 48 24 53 0z m177 -35
c-20 -4 -20 -4 -30 28 l-7 25 27 -25 c22 -21 24 -26 10 -28z m-319 27 c3 -6 1
-16 -4 -21 -13 -13 -45 8 -36 23 7 12 31 11 40 -2z m181 -25 c1 -5 -11 -17
-27 -26 -38 -21 -53 -3 -20 24 23 19 41 20 47 2z m-93 -19 c32 -34 41 -74 23
-92 -12 -13 -21 -7 -62 42 -39 45 -46 58 -34 66 24 15 49 10 73 -16z m276 -27
c54 -58 31 -131 -35 -114 -25 6 -26 8 -10 20 16 12 15 15 -15 49 -19 22 -30
43 -26 52 8 23 62 19 86 -7z m-170 -3 c7 -8 23 -15 36 -15 28 0 33 -30 9 -50
-12 -10 -22 -9 -49 4 -19 9 -39 16 -45 16 -15 0 -14 47 2 53 22 9 34 7 47 -8z
m245 -73 c-19 -4 -35 13 -35 37 0 10 8 7 26 -10 22 -20 23 -25 9 -27z m-140 8
c9 -14 -42 -43 -62 -35 -16 6 -15 8 7 25 28 22 46 25 55 10z m-91 -31 c25 -29
34 -77 19 -93 -4 -3 -31 17 -60 46 -40 40 -50 55 -41 65 18 22 55 15 82 -18z
m261 -5 c22 -9 45 -57 45 -93 0 -39 -27 -55 -66 -41 -25 10 -26 11 -9 24 18
13 17 15 -13 46 -44 43 -42 70 4 70 12 0 30 -3 39 -6z m-161 -19 c11 -8 30
-15 43 -15 18 0 23 -6 23 -24 0 -28 -35 -45 -53 -27 -6 6 -23 11 -38 11 -21 0
-28 6 -31 25 -4 17 0 29 11 35 21 12 22 12 45 -5z m251 -90 c-29 -21 -30 -19
-30 25 l0 40 24 -25 c25 -24 25 -25 6 -40z m-138 19 c2 -5 -10 -17 -26 -27
-35 -21 -37 -21 -45 -2 -3 9 5 20 22 29 29 16 44 16 49 0z m-108 -10 c29 -21
52 -74 44 -103 -7 -28 -11 -26 -71 40 -39 42 -48 59 -40 67 17 17 39 15 67 -4z
m124 -43 l36 -18 -50 -32 c-28 -17 -51 -31 -52 -31 -1 0 -1 18 -1 41 1 33 10
51 29 59 1 0 17 -8 38 -19z"/>
<path d="M385 974 c-132 -74 -241 -137 -242 -141 -2 -6 445 -533 497 -587 5
-5 93 43 202 109 188 115 232 145 196 132 -10 -4 -18 -2 -18 4 0 7 9 9 21 6
20 -5 119 46 119 62 0 9 -520 551 -528 550 -4 -1 -115 -61 -247 -135z m245 87
c0 -17 -4 -33 -10 -36 -5 -3 -10 -21 -10 -39 0 -45 -37 -63 -81 -40 -28 14
-33 14 -55 -1 -13 -8 -24 -20 -24 -25 0 -6 -11 -10 -25 -10 -15 0 -36 -11 -49
-25 -14 -15 -34 -25 -50 -25 -18 0 -30 -7 -38 -25 -8 -18 -19 -25 -38 -25 -15
0 -33 -7 -40 -15 -12 -14 -16 -13 -37 7 -13 12 -20 25 -15 30 11 11 455 257
465 258 4 0 7 -13 7 -29z m35 9 c18 -19 17 -20 -3 -20 -15 0 -22 6 -22 20 0
11 2 20 3 20 2 0 12 -9 22 -20z m31 -56 c19 -15 19 -15 -1 -6 -11 5 -27 12
-35 15 -13 5 -13 6 1 6 8 1 24 -6 35 -15z m32 -49 c-3 -3 -9 2 -12 12 -6 14
-5 15 5 6 7 -7 10 -15 7 -18z m58 -33 c-12 -11 -36 9 -36 30 l1 23 20 -24 c11
-13 17 -26 15 -29z m-108 3 c-3 -3 -9 2 -12 12 -6 14 -5 15 5 6 7 -7 10 -15 7
-18z m-31 -1 c4 -12 -56 -46 -68 -38 -16 10 -10 23 19 38 28 16 44 16 49 0z
m90 -6 c-3 -8 -6 -5 -6 6 -1 11 2 17 5 13 3 -3 4 -12 1 -19z m-262 -9 c-4 -5
1 -20 11 -32 l18 -22 -23 21 c-20 19 -22 44 -5 44 3 0 2 -5 -1 -11z m95 -52
c0 -7 -6 -3 -12 8 -6 11 -16 27 -22 35 -6 9 -1 5 12 -8 12 -13 22 -28 22 -35z
m143 31 c-2 -5 -13 -8 -23 -8 -10 0 -21 3 -23 8 -3 4 8 7 23 7 15 0 26 -3 23
-7z m103 -10 l19 -23 -22 19 c-14 11 -32 17 -47 14 -14 -3 -23 -1 -20 3 10 17
51 9 70 -13z m-160 -3 c2 -5 -5 -21 -15 -34 -21 -28 -51 -23 -51 8 0 32 58 54
66 26z m-192 -26 c14 -17 26 -38 26 -47 -1 -10 -7 -4 -14 13 -15 34 -32 51
-61 58 -19 4 -19 5 2 6 12 1 32 -12 47 -30z m-55 -24 c16 -20 16 -20 -6 -1
-13 11 -23 26 -22 35 0 14 1 14 6 1 3 -8 13 -24 22 -35z m356 25 c10 -11 16
-20 13 -20 -3 0 -13 9 -23 20 -10 11 -16 20 -13 20 3 0 13 -9 23 -20z m-247
-31 c-3 -8 -7 -3 -11 10 -4 17 -3 21 5 13 5 -5 8 -16 6 -23z m154 19 c-9 -9
-7 -18 11 -37 l22 -26 -27 24 c-21 19 -25 27 -17 38 6 7 14 13 17 13 3 0 1 -5
-6 -12z m64 -10 l19 -23 -25 20 c-14 11 -27 21 -29 22 -2 2 0 3 6 3 5 0 18
-10 29 -22z m159 -26 c-20 -4 -20 -4 -30 28 l-7 25 27 -25 c22 -21 24 -26 10
-28z m-520 8 c10 -11 16 -20 13 -20 -3 0 -13 9 -23 20 -10 11 -16 20 -13 20 3
0 13 -9 23 -20z m467 -22 c-6 -6 -7 0 -4 19 5 21 7 23 10 9 2 -10 0 -22 -6
-28z m-521 -5 c13 -16 12 -17 -3 -4 -17 13 -22 21 -14 21 2 0 10 -8 17 -17z
m264 6 c-4 -5 1 -20 11 -32 l18 -22 -23 21 c-20 19 -22 44 -5 44 3 0 2 -5 -1
-11z m70 -9 c10 -11 16 -20 13 -20 -3 0 -13 9 -23 20 -10 11 -16 20 -13 20 3
0 13 -9 23 -20z m163 -14 c12 -3 12 -4 -3 -3 -11 1 -20 9 -21 17 0 8 1 10 3 3
2 -6 12 -14 21 -17z m-594 3 c-3 -6 7 -25 22 -42 l29 -32 -34 31 c-18 18 -30
37 -27 43 4 6 9 11 12 11 3 0 2 -5 -2 -11z m67 -6 c13 -16 12 -17 -3 -4 -10 7
-18 15 -18 17 0 8 8 3 21 -13z m156 -13 c4 0 15 8 26 18 19 17 19 16 6 -6 -15
-24 -43 -26 -45 -2 0 9 1 10 3 3 3 -7 7 -13 10 -13z m313 -26 c-17 -20 -50
-18 -50 4 0 14 2 14 9 3 14 -22 41 -5 42 26 2 25 2 25 6 5 3 -13 -1 -30 -7
-38z m154 47 c3 -4 -5 -6 -18 -4 -35 7 -42 -15 -15 -45 l23 -27 -28 27 c-25
23 -27 29 -16 42 13 17 46 21 54 7z m-566 -36 c-3 -3 -9 2 -12 12 -6 14 -5 15
5 6 7 -7 10 -15 7 -18z m52 -31 c-13 -15 -50 -20 -50 -6 0 5 10 8 23 8 17 -1
23 6 26 29 4 26 5 27 9 7 2 -13 -2 -30 -8 -38z m174 25 c14 -17 26 -35 26 -41
0 -6 -10 4 -23 23 -12 18 -33 36 -47 40 -23 6 -23 7 -3 8 12 1 32 -12 47 -30z
m-256 -14 c-3 -3 -9 2 -12 12 -6 14 -5 15 5 6 7 -7 10 -15 7 -18z m512 2 c0
-30 -43 -53 -60 -32 -16 19 8 55 37 55 17 0 23 -6 23 -23z m128 -2 c-3 -3 -9
2 -12 12 -6 14 -5 15 5 6 7 -7 10 -15 7 -18z m-330 -16 c-3 -8 -7 -3 -11 10
-4 17 -3 21 5 13 5 -5 8 -16 6 -23z m48 -7 c-15 -15 -15 -15 -4 10 7 15 15 23
17 17 2 -6 -4 -18 -13 -27z m337 -20 c-18 -4 -33 14 -33 41 0 15 5 13 24 -10
20 -23 22 -29 9 -31z m-543 28 c0 -27 -45 -56 -64 -41 -12 10 -10 16 8 36 26
30 56 33 56 5z m-153 -27 c-14 -14 -19 -15 -29 -4 -11 10 -10 11 4 6 12 -5 20
-1 24 9 4 9 9 14 12 11 3 -3 -2 -13 -11 -22z m551 11 c-5 -24 -55 -51 -69 -37
-9 9 -3 17 22 32 41 25 52 26 47 5z m94 -16 c-8 -8 -9 -4 -5 13 4 13 8 18 11
10 2 -7 -1 -18 -6 -23z m-412 -22 c0 -12 -5 -7 -19 24 -11 24 -11 24 3 6 9
-11 16 -24 16 -30z m-42 16 c3 -11 -46 -42 -68 -42 -20 0 -10 25 18 42 30 18
44 18 50 0z m152 2 c0 -2 -7 -4 -15 -4 -8 0 -15 4 -15 10 0 5 7 7 15 4 8 -4
15 -8 15 -10z m43 -2 c-10 -10 -20 -17 -22 -16 -6 5 20 34 30 34 5 0 1 -8 -8
-18z m71 -13 c14 -17 26 -38 26 -47 -1 -9 -7 -3 -14 14 -8 17 -24 39 -37 48
-13 9 -18 16 -12 16 6 0 23 -14 37 -31z m-433 2 c-8 -5 -10 -14 -6 -22 6 -11
5 -11 -5 -2 -14 12 -6 33 13 33 8 0 7 -3 -2 -9z m44 -1 c3 -6 -1 -7 -9 -4 -18
7 -21 14 -7 14 6 0 13 -4 16 -10z m225 7 c0 -2 -10 -12 -22 -23 l-23 -19 19
23 c18 21 26 27 26 19z m269 -19 c18 -11 18 -12 -2 -40 -28 -38 -57 -37 -57 2
0 17 7 33 18 39 22 13 19 13 41 -1z m180 -14 c12 -15 21 -32 21 -38 0 -6 -9 3
-19 20 -11 18 -25 34 -33 37 -8 3 -9 6 -1 6 6 1 21 -11 32 -25z m-538 -10 c11
-13 10 -17 -4 -25 -9 -6 -17 -17 -17 -25 0 -10 -8 -14 -22 -12 -33 4 -37 51
-6 66 31 15 34 14 49 -4z m102 9 c-19 -7 -16 -23 9 -52 22 -26 22 -26 -6 1
-29 26 -31 59 -4 57 10 0 10 -2 1 -6z m63 -15 l19 -23 -25 20 c-14 11 -27 21
-29 22 -2 2 0 3 6 3 5 0 18 -10 29 -22z m314 -13 c13 -14 21 -25 18 -25 -2 0
-15 11 -28 25 -13 14 -21 25 -18 25 2 0 15 -11 28 -25z m-624 -17 l29 -33 -32
29 c-31 28 -38 36 -30 36 2 0 16 -15 33 -32z m362 7 c-3 -3 -9 2 -12 12 -6 14
-5 15 5 6 7 -7 10 -15 7 -18z m164 3 c-9 -9 -7 -18 11 -37 l22 -26 -27 24
c-21 19 -25 27 -17 38 6 7 14 13 17 13 3 0 1 -5 -6 -12z m69 -5 c13 -17 13
-17 -6 -3 -11 8 -22 16 -24 17 -2 2 0 3 6 3 6 0 17 -8 24 -17z m179 -33 c0 -4
-11 -12 -25 -18 -24 -11 -25 -11 -25 30 l0 41 25 -23 c14 -13 25 -26 25 -30z
m-364 2 c-17 -16 -18 -16 -5 5 7 12 15 20 18 17 3 -2 -3 -12 -13 -22z m-32 3
c3 -8 1 -15 -4 -15 -6 0 -10 7 -10 15 0 8 2 15 4 15 2 0 6 -7 10 -15z m333 -7
c-3 -8 -6 -5 -6 6 -1 11 2 17 5 13 3 -3 4 -12 1 -19z m-378 -34 c-7 -13 -17
-24 -22 -24 -6 0 -3 8 6 18 10 10 17 27 18 38 0 12 3 14 6 6 3 -8 0 -25 -8
-38z m112 27 c-9 -6 -11 -16 -7 -27 6 -15 4 -16 -5 -7 -14 14 -5 43 13 43 10
0 9 -3 -1 -9z m98 -84 l-1 -32 -8 38 c-4 20 -15 48 -26 60 -10 13 -7 10 9 -5
19 -20 27 -38 26 -61z m-468 64 c-13 -8 -13 -12 -1 -28 13 -17 13 -17 -4 -1
-19 16 -15 38 7 38 8 0 7 -4 -2 -9z m60 -8 c13 -17 13 -17 -6 -3 -11 8 -22 16
-24 17 -2 2 0 3 6 3 6 0 17 -8 24 -17z m562 5 c-2 -5 -13 -8 -24 -8 -10 0 -19
3 -19 8 0 4 11 7 24 7 13 0 22 -3 19 -7z m-505 -33 c-3 -3 -9 2 -12 12 -6 14
-5 15 5 6 7 -7 10 -15 7 -18z m233 -2 c13 -17 13 -17 -6 -3 -11 8 -22 16 -24
17 -2 2 0 3 6 3 6 0 17 -8 24 -17z m-251 -44 c0 -9 -6 -22 -13 -28 -11 -8 -20
-3 -43 22 l-29 32 32 -29 c29 -26 33 -27 39 -12 4 10 1 29 -5 44 -11 25 -10
26 4 8 8 -11 15 -27 15 -37z m443 30 c-6 -6 -19 -9 -29 -6 -16 4 -15 5 4 6 12
0 22 6 22 13 0 6 3 8 7 5 4 -4 2 -12 -4 -18z m-409 -14 c3 -8 1 -15 -4 -15 -6
0 -10 7 -10 15 0 8 2 15 4 15 2 0 6 -7 10 -15z m41 -4 c-3 -6 -11 -11 -16 -11
-5 0 -4 6 3 14 14 16 24 13 13 -3z m75 -5 c0 -33 -43 -61 -69 -44 -19 12 -19
12 2 39 28 36 67 39 67 5z m51 -3 c13 -16 12 -17 -3 -4 -10 7 -18 15 -18 17 0
8 8 3 21 -13z m77 -8 c-3 -3 -9 2 -12 12 -6 14 -5 15 5 6 7 -7 10 -15 7 -18z
m62 -18 c10 -4 8 -6 -7 -6 -16 -1 -23 5 -23 17 0 10 3 13 8 6 4 -6 14 -14 22
-17z m70 13 c-20 -13 -33 -13 -25 0 3 6 14 10 23 10 15 0 15 -2 2 -10z m-222
-28 c3 -11 -46 -42 -68 -42 -20 0 -10 26 18 42 29 19 43 19 50 0z m88 -28 c-9
-8 -11 -9 -6 -2 6 7 11 21 11 33 1 18 2 18 6 1 3 -10 -2 -25 -11 -32z m-192
-5 c14 -17 26 -35 26 -41 0 -6 -10 4 -23 23 -23 35 -46 45 -74 35 -14 -6 -13
-10 8 -34 l24 -27 -27 24 c-21 19 -25 27 -17 38 19 22 56 15 83 -18z m241 11
c-3 -5 -10 -10 -16 -10 -5 0 -9 5 -9 10 0 6 7 10 16 10 8 0 12 -4 9 -10z
m-112 -29 l37 -19 -57 -35 -58 -36 -3 41 c-2 29 1 43 15 54 23 17 22 17 66 -5z
m-104 -60 c5 13 10 17 10 9 0 -8 -4 -22 -9 -30 -8 -12 -15 -9 -42 20 l-33 35
32 -29 32 -29 10 24z"/>
</g>
</svg>
