<svg version="1.1" id="Layer_1" xmlns="http://www.w3.org/2000/svg" xmlns:xlink="http://www.w3.org/1999/xlink" x="0px" y="0px"
	 width="100%" viewBox="0 0 192 192" enable-background="new 0 0 192 192" xml:space="preserve">
<path fill="#000000" opacity="1.000000" stroke="none" 
	d="
M152.197754,57.868614 
	C158.095459,66.495766 156.711823,74.144547 152.441330,83.053146 
	C147.155518,94.079765 140.856476,103.080070 129.788849,108.957069 
	C121.005432,113.621109 112.920609,119.624107 104.649025,125.215187 
	C101.971382,127.025124 99.824379,127.360069 96.987549,125.462044 
	C84.817955,117.319771 72.532661,109.350029 60.263485,101.357399 
	C58.248096,100.044502 56.784954,98.392746 55.734486,96.209694 
	C52.127247,88.713219 48.445236,81.251816 44.702541,73.821976 
	C43.562119,71.558067 43.310387,69.422462 44.618382,67.191719 
	C44.785896,66.906029 44.901047,66.589447 45.038132,66.286125 
	C48.803612,57.954540 50.880711,48.058540 56.774010,41.698837 
	C63.679119,34.247238 73.889488,29.848373 82.697845,24.174549 
	C87.591606,21.022280 92.585541,18.024925 97.463821,14.849443 
	C99.815765,13.318466 101.820610,13.145624 104.307457,14.814644 
	C116.603188,23.066805 128.989273,31.185022 141.386383,39.284847 
	C143.560562,40.705379 145.097610,42.476139 146.141434,44.853527 
	C148.013992,49.118378 150.063461,53.305553 152.197754,57.868614 
M87.725700,39.191360 
	C90.625359,32.928341 93.525009,26.665319 96.424667,20.402300 
	C96.057297,20.098978 95.689919,19.795658 95.322548,19.492338 
	C83.844261,26.850113 72.365974,34.207890 60.253006,41.972507 
	C64.023254,44.686947 67.065880,46.909424 70.146294,49.078209 
	C71.240456,49.848564 72.528084,50.703960 73.810234,49.737171 
	C78.285454,46.362663 83.959961,44.631397 87.725700,39.191360 
M109.633148,109.053284 
	C108.517136,112.746414 105.928314,115.954491 105.547127,121.336288 
	C117.465416,113.535904 128.465317,106.336586 139.669785,99.003387 
	C136.781265,95.044083 133.028809,93.389389 129.976822,90.903015 
	C128.933044,90.052673 127.796104,90.433739 126.724197,91.074371 
	C119.587219,95.339851 111.980209,99.143585 109.633148,109.053284 
M120.160545,45.308609 
	C127.749023,50.180569 132.502823,49.280754 139.226852,41.301170 
	C128.201706,34.026520 117.241302,26.794588 106.280899,19.562656 
	C105.946533,19.921061 105.612160,20.279465 105.277794,20.637871 
	C107.455193,25.618654 109.812073,30.530727 111.753410,35.601883 
	C113.317223,39.686893 115.676361,42.885777 120.160545,45.308609 
M80.848465,95.717316 
	C73.847923,91.157104 67.597588,92.397713 62.639961,99.681419 
	C73.654068,106.859802 84.658455,114.031853 95.662834,121.203903 
	C94.030930,115.203827 91.438393,110.066864 89.147194,104.798836 
	C87.497452,101.005684 85.321861,97.854660 80.848465,95.717316 
M109.555031,43.365486 
	C110.318024,42.734165 111.425713,42.085705 110.974159,40.980579 
	C107.943069,33.562523 104.917267,26.133968 100.616653,18.175249 
	C97.077087,25.804920 94.006683,32.413071 90.946846,39.026100 
	C90.187187,40.667896 90.145813,42.051659 91.709290,43.464157 
	C97.444420,48.645481 100.419205,49.016247 106.871857,45.043392 
	C107.579506,44.607693 108.284447,44.167583 109.555031,43.365486 
M95.406044,94.874817 
	C93.615211,96.872314 88.721321,96.924660 90.396362,101.028000 
	C93.195465,107.884941 96.707260,114.450958 100.423676,122.190285 
	C104.559120,114.385612 107.630348,107.338715 110.424149,100.164719 
	C110.621872,99.657021 110.380486,98.831299 110.081825,98.300598 
	C107.712959,94.091301 100.080750,92.045624 95.406044,94.874817 
M53.730892,74.796654 
	C56.097996,76.340637 58.472019,77.874146 60.829777,79.432274 
	C62.411953,80.477852 63.631966,80.753433 64.975456,78.809540 
	C69.308441,72.540161 68.712250,66.343506 62.655254,60.386707 
	C57.979034,63.505768 53.226067,66.676018 48.621677,69.747162 
	C49.510685,72.640617 51.738495,73.073853 53.730892,74.796654 
M148.474121,74.018166 
	C149.793900,72.651680 152.244202,72.604652 152.989273,69.860573 
	C148.113724,66.738983 143.174011,63.576317 138.270599,60.436878 
	C131.905106,68.876854 131.656189,71.667419 137.668198,80.187996 
	C141.575760,79.206886 144.412857,76.215034 148.474121,74.018166 
M83.845177,64.188225 
	C79.403175,64.419632 76.828041,67.616333 73.473709,70.043541 
	C76.809784,73.486244 80.518295,75.366905 83.911034,77.682419 
	C86.848923,79.687485 89.366005,78.845032 91.246765,76.300140 
	C93.317902,73.497643 93.065964,70.764984 90.001030,68.607742 
	C88.110497,67.277092 86.277023,65.865356 83.845177,64.188225 
M109.731636,65.513725 
	C108.963425,69.865852 111.702126,74.439384 117.137672,75.966789 
	C121.738876,77.259743 124.132530,72.949989 128.243484,70.346016 
	C124.264267,67.762527 120.978004,65.889343 117.992470,63.620441 
	C114.733688,61.143898 112.280197,61.822601 109.731636,65.513725 
M88.989388,46.860832 
	C88.171455,45.308830 86.980667,44.470039 85.381592,45.638893 
	C82.218063,47.951267 78.475204,49.492279 75.508636,52.775162 
	C78.508232,55.281830 80.718346,59.362595 84.733620,58.776627 
	C91.660469,57.765755 93.219032,53.216496 88.989388,46.860832 
M117.390564,93.754250 
	C120.019630,91.876617 123.173012,90.692848 125.372017,88.191353 
	C118.838264,80.966019 117.420891,80.799583 111.226585,84.668259 
	C107.937408,86.722534 108.587151,88.699379 110.221375,91.200333 
	C111.795677,93.609566 112.780205,97.242172 117.390564,93.754250 
M73.468658,86.754745 
	C77.162987,85.682274 80.298637,83.713829 83.345062,80.930321 
	C79.286850,77.746849 75.402527,75.041901 71.178513,72.889763 
	C65.018532,81.240364 65.256706,83.099449 73.468658,86.754745 
M118.357109,60.150955 
	C121.932945,63.310120 125.957802,65.700592 130.052322,67.605896 
	C131.908310,66.179230 132.305298,64.513191 132.889206,62.998386 
	C133.659454,61.000172 135.796188,58.951241 132.946701,56.881527 
	C130.347549,54.993626 127.793671,53.067780 124.455055,55.452991 
	C122.449249,56.886005 120.373901,58.221695 118.357109,60.150955 
M57.796043,60.341579 
	C63.099422,56.719543 62.905510,53.740517 56.715214,46.437515 
	C53.953156,52.795406 51.245071,59.029053 47.945038,66.625290 
	C51.942455,64.077110 54.572033,62.400864 57.796043,60.341579 
M145.617599,89.968231 
	C147.843552,85.221443 150.069504,80.474663 152.491241,75.310387 
	C138.273102,81.704941 136.996979,84.313416 143.136765,93.611076 
	C144.779373,93.260780 144.575699,91.582329 145.617599,89.968231 
M144.463608,47.996662 
	C140.174393,48.243084 141.390823,52.501591 139.702789,54.660690 
	C138.694992,55.949711 139.204056,57.631458 140.709625,58.517021 
	C144.352036,60.659447 147.549805,63.599541 152.481552,65.159103 
	C149.732773,59.195248 147.265213,53.841564 144.463608,47.996662 
M49.525066,77.243126 
	C52.243946,82.796410 54.962822,88.349693 58.129593,94.817795 
	C59.622185,91.360939 60.612392,89.094772 61.578823,86.818512 
	C62.105083,85.578987 62.777611,84.119080 61.312454,83.231781 
	C57.483284,80.912819 54.512630,77.014992 49.525066,77.243126 
M130.259338,73.649185 
	C126.682686,74.487053 123.723434,76.226440 121.260101,79.578522 
	C123.646568,81.331497 125.809410,82.829575 127.868103,84.459213 
	C129.735321,85.937302 131.171768,85.023888 132.780914,83.969986 
	C134.577850,82.793091 134.585144,81.413338 133.715469,79.721031 
	C132.736649,77.816307 131.801788,75.888985 130.259338,73.649185 
M73.839981,56.723846 
	C71.340912,54.684296 68.522484,55.312599 67.490288,57.704704 
	C65.852013,61.501392 68.871712,64.345749 70.927208,67.428467 
	C74.266106,66.077591 76.889366,64.222603 79.378288,62.117744 
	C78.459610,59.435360 76.054474,58.660183 73.839981,56.723846 
M95.502060,57.313999 
	C91.437668,56.051041 90.029396,59.629631 87.480904,61.255161 
	C88.928734,64.157486 91.582085,65.079498 93.607231,66.714287 
	C95.327713,68.103134 97.003502,67.680290 98.566437,66.393784 
	C100.302917,64.964417 99.538239,63.466286 98.616455,61.994366 
	C97.738777,60.592854 96.840805,59.204044 95.502060,57.313999 
M112.177483,80.842247 
	C114.264381,79.271698 113.291603,77.910751 111.647064,77.076118 
	C109.207611,75.838051 107.662575,72.184135 104.013016,74.027924 
	C101.978264,75.055885 100.888000,76.436684 102.478783,78.694839 
	C103.774506,80.534149 104.362419,82.907799 106.511513,84.139618 
	C108.619034,83.784424 110.018143,82.308388 112.177483,80.842247 
M116.714417,46.366108 
	C111.283836,48.317520 114.076973,53.194813 111.595146,57.594151 
	C117.149567,56.185669 120.416588,54.149872 123.793686,50.989017 
	C121.336342,49.351154 119.314529,48.003582 116.714417,46.366108 
M79.441704,91.503700 
	C81.576889,92.559227 83.779816,95.843956 85.827797,94.126312 
	C88.538147,91.853127 88.902931,87.924171 88.308846,83.832520 
	C84.573112,84.920334 81.739532,86.841301 78.932434,88.795143 
	C77.881241,89.526817 77.863167,90.362198 79.441704,91.503700 
M101.005447,87.938744 
	C106.395859,82.669762 98.537544,81.425438 98.832062,77.512238 
	C92.299995,80.962555 92.145073,83.010262 97.374100,86.372322 
	C98.336647,86.991203 99.390900,87.467461 101.005447,87.938744 
M98.501450,56.520020 
	C99.595894,58.182846 100.678810,59.853405 101.788635,61.505901 
	C102.590744,62.700226 103.566917,63.643585 105.051689,62.576042 
	C106.635963,61.436943 107.720001,59.665939 107.245033,57.869576 
	C106.496506,55.038593 103.523582,54.299046 101.286041,53.028770 
	C99.976662,52.285423 98.705132,53.128918 98.112083,54.525822 
	C97.947762,54.912891 98.191467,55.473186 98.501450,56.520020 
M133.994019,54.352379 
	C139.579681,55.080341 137.358093,49.884209 139.162415,47.649353 
	C137.118027,48.356339 135.283951,49.295845 133.502670,50.326553 
	C131.440094,51.520031 131.737534,52.785915 133.994019,54.352379 
M68.381447,90.296364 
	C69.856789,86.861565 66.940163,87.381790 65.237198,86.482521 
	C63.645378,88.467316 62.893993,90.440086 62.611794,92.852760 
	C64.989464,92.816422 66.190529,91.188240 68.381447,90.296364 
M106.010635,52.635616 
	C111.783356,53.709721 108.555771,48.985886 109.646774,47.022419 
	C108.058533,48.646912 103.260231,47.759754 106.010635,52.635616 
M94.116020,92.488922 
	C95.062408,91.677650 96.595871,91.525200 96.948784,89.922752 
	C95.948189,88.577881 94.649483,87.380608 92.952217,88.251938 
	C91.636009,88.927628 91.084709,90.540298 91.342018,92.083359 
	C91.581131,93.517311 92.624992,93.207832 94.116020,92.488922 
M136.302475,90.687279 
	C136.981750,90.969994 137.423401,91.993492 138.622910,91.238930 
	C137.820236,89.387939 137.808853,87.069206 135.546158,86.088440 
	C135.189011,85.933640 134.201340,86.501419 133.944992,86.973785 
	C132.873703,88.947845 134.808975,89.433701 136.302475,90.687279 
M62.673191,50.803116 
	C63.585079,52.813297 64.161346,55.452137 68.010765,53.557125 
	C66.142799,51.596840 65.487579,49.100201 62.673191,50.803116 
M103.262489,68.003242 
	C100.798454,69.092010 98.198181,70.015770 97.282196,72.993752 
	C99.348145,71.190727 103.358292,71.966614 103.262489,68.003242 
z"/>
<path fill="#000000" opacity="1.000000" stroke="none" 
	d="
M127.659828,144.019394 
	C127.668671,142.728134 127.622925,141.890442 127.698189,141.063736 
	C127.813652,139.795547 127.529030,138.117966 129.459183,138.054779 
	C131.546356,137.986404 131.756119,139.772232 131.830902,141.221802 
	C132.019608,144.878723 132.046265,148.545563 132.073929,152.208893 
	C132.117920,158.038177 132.214325,163.870361 132.075928,169.696243 
	C132.014862,172.266022 131.722565,175.147446 127.726540,173.237305 
	C127.196388,172.983887 126.389343,172.896576 125.863319,173.109589 
	C117.817429,176.368134 111.967155,173.726837 107.697998,165.899719 
	C104.480583,170.646881 101.257896,174.738815 95.053421,174.426575 
	C91.700836,174.257843 88.860931,173.424911 86.581200,170.916611 
	C81.777206,165.630966 82.046188,157.904236 87.199875,153.532181 
	C93.477974,148.206253 101.018188,150.063583 107.686295,158.959000 
	C111.925430,150.607437 118.638191,148.895035 126.848770,152.132706 
	C128.232407,149.435486 127.409180,146.902390 127.659828,144.019394 
M124.168938,156.364182 
	C122.313179,155.232407 120.507973,154.134903 118.143768,155.068649 
	C114.560417,156.483856 112.295479,158.824219 112.305626,162.850342 
	C112.315475,166.748749 114.765610,169.001892 118.073288,170.120331 
	C121.606041,171.314865 124.155998,169.144257 126.075905,166.518234 
	C128.669235,162.971130 127.886429,159.671906 124.168938,156.364182 
M98.047447,169.480576 
	C102.573174,166.315842 103.859154,162.883759 101.923981,159.134659 
	C100.145218,155.688568 96.022064,153.929321 92.812637,155.247086 
	C89.003975,156.810928 86.713303,160.965042 87.790924,164.353958 
	C89.138344,168.591293 92.719933,170.612961 98.047447,169.480576 
z"/>
<path fill="#000000" opacity="1.000000" stroke="none" 
	d="
M38.985058,157.018021 
	C44.698048,150.807037 49.905071,149.139969 55.618660,151.692581 
	C60.240337,153.757370 60.620869,155.665863 57.240700,159.332092 
	C54.347343,162.470306 50.866798,165.091522 48.577000,168.672379 
	C49.751926,171.022339 51.507465,170.784225 52.867836,169.731247 
	C56.278290,167.091431 60.131645,165.103470 61.162674,159.975098 
	C62.716988,152.243881 71.594604,148.370422 78.399475,151.833878 
	C81.869064,153.599762 82.552750,155.242752 81.530357,159.357681 
	C72.202560,154.342072 69.864220,154.079956 66.972076,158.031738 
	C64.490799,161.422119 64.529915,164.856125 67.549431,167.956223 
	C71.175301,171.678833 73.200005,171.326721 81.609581,165.528336 
	C82.825333,168.380951 82.472878,170.547089 79.972160,172.423386 
	C75.296524,175.931534 69.586510,174.836197 61.317482,168.735718 
	C53.900333,176.400894 44.843433,176.309952 40.108574,168.564636 
	C38.029568,165.163773 38.645893,161.515839 38.952316,157.439972 
	C39.002045,156.998367 38.985058,157.018021 38.985058,157.018021 
M45.487808,156.992477 
	C43.418621,159.385834 41.570187,161.815979 44.073048,165.425720 
	C47.564896,162.492157 50.663124,159.691223 53.352951,156.164520 
	C50.490517,153.704163 48.254066,155.116043 45.487808,156.992477 
z"/>
<path fill="#000000" opacity="1.000000" stroke="none" 
	d="
M162.925659,166.640991 
	C165.890167,164.209290 165.890167,164.209290 168.665955,168.915771 
	C171.233887,166.282257 171.747498,158.326645 169.051666,156.668213 
	C164.275223,153.729782 166.670731,152.734360 170.028183,151.637268 
	C169.874664,150.434952 169.479111,149.173416 169.619812,147.974823 
	C169.796326,146.470856 170.958160,145.678604 172.497299,145.867355 
	C173.971436,146.048141 175.339188,147.093994 174.994675,148.455048 
	C173.868103,152.905914 175.912247,157.181808 175.328217,161.600067 
	C174.846603,165.243607 174.959610,168.936813 178.832077,170.811646 
	C178.575470,173.235886 176.991211,173.445328 175.502853,173.329285 
	C169.915421,172.893646 164.300537,174.388992 158.699677,172.915543 
	C157.433548,172.582443 155.842651,173.421570 154.415100,173.776688 
	C151.073761,174.607910 147.922150,174.069977 145.847702,171.322922 
	C143.894653,168.736649 144.015457,165.708984 146.093414,163.019257 
	C146.841171,162.051315 147.395798,161.232269 146.731674,159.904938 
	C144.413177,155.270996 147.080338,153.041153 151.031143,151.819748 
	C156.274979,150.198593 159.931503,152.024139 161.537979,156.344360 
	C162.818634,159.788361 161.348465,163.468628 162.925659,166.640991 
M156.510208,166.625290 
	C156.179153,163.680374 154.069809,165.331924 152.751617,165.284698 
	C151.198578,165.229065 149.539825,165.865662 149.899673,167.765533 
	C150.294220,169.848450 152.183243,169.804169 153.853424,169.459122 
	C155.045670,169.212830 155.776291,168.293365 156.510208,166.625290 
M156.506363,156.556351 
	C152.300079,154.142715 151.978943,156.890228 151.651428,160.242157 
	C154.508957,160.595261 156.847198,160.789139 156.506363,156.556351 
z"/>
<path fill="#000000" opacity="1.000000" stroke="none" 
	d="
M39.011200,156.988739 
	C38.211994,156.900696 37.316849,157.021378 36.608860,156.712753 
	C30.282438,153.954803 28.391563,155.173431 28.276394,162.205795 
	C28.230179,165.027847 28.269901,167.851547 28.202971,170.672913 
	C28.166042,172.229538 27.911825,173.847519 25.850004,173.767822 
	C24.145643,173.701935 23.780729,172.301483 23.772013,170.900955 
	C23.736881,165.255951 23.720798,159.610260 23.784733,153.965820 
	C23.793344,153.205475 24.084970,152.228409 24.606726,151.729187 
	C28.202623,148.288681 37.714382,151.343018 38.928680,156.634781 
	C38.985058,157.018021 39.002045,156.998367 39.011200,156.988739 
z"/>
<path fill="#000000" opacity="1.000000" stroke="none" 
	d="
M137.391434,168.004578 
	C139.996567,167.525757 141.215424,168.522079 141.319565,170.788437 
	C141.377792,172.055359 140.833344,173.024673 139.560135,173.466110 
	C138.136353,173.959717 136.832550,173.606796 136.041809,172.423401 
	C134.935715,170.768051 135.500748,169.288116 137.391434,168.004578 
z"/>
</svg>