<svg version="1.0" xmlns="http://www.w3.org/2000/svg"
 width="1001.000000pt" height="322.000000pt" viewBox="0 0 1001.000000 322.000000">

<g transform="translate(0.000000,322.000000) scale(0.100000,-0.100000)">
	
<path d="M3 2098 c2 -1026 4 -1131 20 -1212 109 -545 438 -818 1057 -877 134
-13 415 -7 535 11 277 41 495 136 652 283 159 151 245 321 299 597 15 75 17
191 21 953 l4 867 365 0 364 0 0 -1335 0 -1335 320 0 320 0 0 1335 0 1335
1265 0 1265 0 0 250 0 250 -2270 0 -2269 0 -4 -1042 c-3 -1013 -4 -1046 -24
-1133 -43 -188 -104 -307 -204 -399 -104 -96 -248 -146 -423 -146 -369 0 -578
201 -641 616 -12 83 -15 265 -15 1102 l0 1002 -320 0 -321 0 4 -1122z"/>
<path d="M6750 1005 l0 -945 195 0 195 0 0 355 0 355 198 0 c222 0 391 13 472
36 124 36 225 108 293 211 67 100 89 175 94 313 8 204 -36 338 -150 452 -70
71 -136 110 -223 133 -83 22 -352 34 -741 35 l-333 0 0 -945z m740 616 c69 -5
142 -16 161 -24 49 -20 106 -73 132 -121 30 -58 30 -174 0 -232 -25 -47 -82
-101 -127 -119 -53 -22 -181 -35 -352 -35 l-164 0 0 270 0 270 113 0 c61 -1
168 -5 237 -9z"/>
<path d="M8317 1943 c-4 -3 -7 -429 -7 -945 l0 -938 195 0 195 0 0 396 0 397
108 -7 c59 -3 130 -14 157 -23 82 -27 148 -105 380 -450 l210 -312 228 -1
c180 0 227 3 221 13 -52 86 -271 433 -318 502 -78 115 -174 216 -255 271 -64
43 -64 43 -35 49 322 72 477 259 461 555 -9 152 -57 260 -156 353 -95 89 -191
120 -417 137 -154 11 -957 14 -967 3z m1030 -349 c171 -83 156 -361 -22 -423
-29 -10 -118 -15 -332 -18 l-293 -5 0 243 0 242 296 -6 c296 -6 297 -6 351
-33z"/>
<path d="M4880 995 l0 -945 295 0 295 0 0 695 0 695 505 0 505 0 0 250 0 250
-800 0 -800 0 0 -945z"/>
</g>
</svg>
